<svg width="62" height="62" viewBox="0 0 62 62" fill="none" xmlns="http://www.w3.org/2000/svg">
<path d="M31 26.8668V51.6668M31 26.8668C31 21.0796 31 18.186 29.8737 15.9756C28.883 14.0313 27.3022 12.4505 25.3579 11.4598C23.1475 10.3335 20.2539 10.3335 14.4667 10.3335H11.8833C10.4365 10.3335 9.71313 10.3335 9.16053 10.6151C8.67445 10.8627 8.27925 11.2579 8.03156 11.744C7.75 12.2966 7.75 13.02 7.75 14.4668V42.3668C7.75 43.8138 7.75 44.5371 8.03156 45.0897C8.27925 45.5758 8.67445 45.9708 9.16053 46.2186C9.71313 46.5002 10.4365 46.5002 11.8833 46.5002H19.4956C20.8911 46.5002 21.5888 46.5002 22.2635 46.6205C22.8624 46.7272 23.4466 46.9039 24.0041 47.1475C24.6322 47.4216 25.2127 47.8086 26.3738 48.5828L31 51.6668M31 26.8668C31 21.0796 31 18.186 32.1263 15.9756C33.117 14.0313 34.6978 12.4505 36.642 11.4598C38.8526 10.3335 41.7461 10.3335 47.5333 10.3335H50.1167C51.5636 10.3335 52.2869 10.3335 52.8395 10.6151C53.3257 10.8627 53.7207 11.2579 53.9684 11.744C54.25 12.2966 54.25 13.02 54.25 14.4668V42.3668C54.25 43.8138 54.25 44.5371 53.9684 45.0897C53.7207 45.5758 53.3257 45.9708 52.8395 46.2186C52.2869 46.5002 51.5636 46.5002 50.1167 46.5002H42.5044C41.1088 46.5002 40.4111 46.5002 39.7366 46.6205C39.1375 46.7272 38.5534 46.9039 37.9959 47.1475C37.3679 47.4216 36.7872 47.8086 35.6262 48.5828L31 51.6668" stroke="#411666" stroke-width="5.16667" stroke-linecap="round" stroke-linejoin="round"/>
</svg>
