<svg width="62" height="62" viewBox="0 0 62 62" fill="none" xmlns="http://www.w3.org/2000/svg">
<path d="M5.16663 31.0002C5.16663 21.2578 5.16663 16.3866 8.19318 13.3601C11.2198 10.3335 16.0909 10.3335 25.8333 10.3335H36.1666C45.9089 10.3335 50.7803 10.3335 53.8067 13.3601C56.8333 16.3866 56.8333 21.2578 56.8333 31.0002V36.1668C56.8333 45.9091 56.8333 50.7805 53.8067 53.8069C50.7803 56.8335 45.9089 56.8335 36.1666 56.8335H25.8333C16.0909 56.8335 11.2198 56.8335 8.19318 53.8069C5.16663 50.7805 5.16663 45.9091 5.16663 36.1668V31.0002Z" stroke="#411666" stroke-width="3.875"/>
<path d="M18.0834 10.3335V6.4585" stroke="#411666" stroke-width="3.875" stroke-linecap="round"/>
<path d="M43.9166 10.3335V6.4585" stroke="#411666" stroke-width="3.875" stroke-linecap="round"/>
<path d="M6.45837 23.25H55.5417" stroke="#411666" stroke-width="3.875" stroke-linecap="round"/>
</svg>
