<svg width="1980" height="545" viewBox="0 0 1980 545" fill="none" xmlns="http://www.w3.org/2000/svg">
<path d="M-94.8237 173.612C48.9923 165.139 150.491 138.191 217.008 114.86C284.272 91.2663 332.715 65.3845 421.236 51.4696C518.87 36.0085 582.664 42.9351 607.896 46.8312C642.878 52.2426 640.704 55.9223 697.932 68.4767C807.864 92.5959 828.748 81.866 878.004 97.8527C959.673 124.353 935.32 164.567 1020.74 209.172C1082.61 241.486 1185.03 267.197 1277.68 249.371C1364.92 232.58 1374.74 190.418 1466.53 184.434C1504.24 181.976 1535.6 187.434 1598.29 198.349C1678.64 212.264 1732.6 229.426 1754.21 235.456C1818.22 253.344 1921.54 264.6 2090.2 229.271" stroke="url(#paint0_linear_122_161)" stroke-opacity="0.7" stroke-width="1.05218" stroke-miterlimit="10"/>
<path d="M-95.7899 187.249C43.3266 179.936 147.329 155.538 219.885 131.357C278.826 111.444 323.778 89.6125 385.727 74.0123C399.276 70.6109 413.55 67.3177 428.922 64.4729C525.788 46.569 589.34 49.5221 615.867 51.331C651.443 53.7429 651.443 56.495 707.528 68.6938C747.056 77.2746 775.209 82.1758 797.015 85.3917C834.084 90.8494 852.64 91.2205 881.891 101.719C892.805 105.603 903.047 110.361 912.415 115.896C955.742 141.484 953.898 173.922 1025.77 208.307C1088.34 238.239 1190.08 260.874 1281.15 243.172C1288.36 241.766 1295.47 240.104 1302.45 238.193C1372.85 218.882 1388.66 184.914 1469.34 179.58C1477.84 179.01 1486.39 178.839 1494.93 179.07C1523.61 179.781 1553.25 184.822 1600.2 192.985C1677.98 206.591 1731.11 223.428 1754.93 230.092C1772.38 234.927 1790.38 238.723 1808.73 241.44C1872.24 250.964 1962.01 251.953 2088.31 227.649" stroke="url(#paint1_linear_122_161)" stroke-opacity="0.7" stroke-width="1.05218" stroke-miterlimit="10"/>
<path d="M-96.7562 202.091C37.6389 195.907 144.255 174.262 222.762 148.936C285.106 128.837 332.144 105.877 392.952 89.4887C406.83 85.7317 421.214 81.9283 436.652 78.666C532.749 58.3038 595.972 55.8455 623.905 57.0206C659.897 58.5667 662.291 58.2729 717.147 70.1006C755.555 78.4032 783.598 84.0155 804.987 87.9581C841.023 94.56 858.35 95.8896 885.712 106.79C896.138 110.987 905.938 115.913 914.963 121.493C956.818 146.911 958.883 177.4 1030.85 208.693C1094.11 236.229 1195.17 255.788 1284.66 238.208C1292.24 236.662 1299.24 235.116 1305.81 233.261C1378.43 213.594 1394.5 181.204 1472.22 176.055C1480.65 175.47 1489.13 175.279 1497.61 175.483C1526.77 176.086 1556.37 180.987 1602.18 189.073C1677.41 202.308 1729.66 218.867 1755.72 226.01C1773.03 230.801 1790.87 234.607 1809.04 237.389C1871.98 247.129 1961.33 249.186 2086.37 227.293" stroke="url(#paint2_linear_122_161)" stroke-opacity="0.7" stroke-width="1.05218" stroke-miterlimit="10"/>
<path d="M-97.7004 217.939C31.9733 212.945 141.136 193.851 225.66 167.598C291.321 147.189 340.511 123.178 400.133 105.986C414.363 101.873 428.878 97.5748 444.338 93.8797C539.666 71.0901 602.45 66.3126 631.898 63.7152C668.33 60.5147 673.095 61.0559 726.744 72.5125C764.076 80.5059 792.009 86.8449 813.09 91.5141C848.073 99.2446 864.213 101.564 889.687 112.85C899.545 117.368 908.845 122.462 917.488 128.079C957.873 153.312 963.977 181.838 1035.85 210.023C1099.91 235.163 1200.2 251.66 1288.11 234.189C1295.62 232.642 1302.58 231.096 1309.1 229.287C1383.9 209.188 1400.3 178.436 1475.01 173.318C1483.38 172.719 1491.8 172.508 1500.22 172.685C1529.86 173.164 1559.51 177.957 1604.11 185.888C1676.75 198.736 1728.16 215.001 1756.45 222.747C1773.65 227.466 1791.34 231.275 1809.35 234.142C1871.72 244.099 1960.65 247.238 2084.42 227.741" stroke="url(#paint3_linear_122_161)" stroke-opacity="0.7" stroke-width="1.05218" stroke-miterlimit="10"/>
<path d="M-98.6667 233.817C26.3076 229.983 137.974 213.471 228.537 186.275C297.536 165.541 348.856 140.463 407.335 122.498C421.895 118.03 436.52 113.221 452.046 109.109C546.606 83.938 608.818 75.3725 639.914 70.4559C676.653 64.6426 683.834 63.885 736.362 74.9705C772.706 82.7011 800.397 89.7204 821.128 95.0699C855.056 103.914 869.989 107.253 893.596 118.911C902.869 123.737 911.672 128.996 919.948 134.65C958.883 159.666 969.028 186.244 1040.84 211.414C1105.69 234.142 1205.19 247.593 1291.53 230.246C1298.96 228.7 1305.87 227.154 1312.37 225.376C1389.36 204.859 1406.05 175.9 1477.78 170.721C1486.09 170.13 1494.45 169.897 1502.81 170.025C1532.9 170.396 1562.45 175.065 1606.02 182.842C1676.12 195.335 1726.67 211.321 1757.17 219.624C1774.26 224.297 1791.79 228.115 1809.63 231.05C1871.45 241.239 1959.97 245.428 2082.49 228.36" stroke="url(#paint4_linear_122_161)" stroke-opacity="0.7" stroke-width="1.05218" stroke-miterlimit="10"/>
<path d="M-99.589 244.053C20.6859 241.378 134.878 227.463 231.458 199.324C303.772 178.25 357.245 152.059 414.582 133.382C429.449 128.543 444.228 123.286 459.798 118.71C553.545 91.1583 615.253 78.8823 647.907 71.5383C684.976 63.2202 694.704 61.0402 745.959 71.7702C774.263 77.7172 802.047 84.8312 829.165 93.0755C862.105 103.017 875.786 107.408 897.461 119.359C906.925 124.601 914.436 130.182 922.561 135.609C960.046 160.346 974.255 185.084 1045.93 207.163C1111.64 227.463 1210.3 237.884 1295.07 220.66C1302.42 219.114 1309.3 217.568 1315.75 215.821C1394.96 194.933 1411.94 167.505 1480.67 162.48C1488.92 161.887 1497.22 161.639 1505.51 161.738C1536.08 162.032 1565.59 166.531 1607.98 174.107C1675.5 186.197 1725.22 201.937 1757.92 210.796C1774.89 215.419 1792.29 219.241 1809.99 222.237C1871.23 232.658 1959.31 237.93 2080.58 223.257" stroke="url(#paint5_linear_122_161)" stroke-opacity="0.7" stroke-width="1.05218" stroke-miterlimit="10"/>
<path d="M-100.599 251.35C14.9543 249.804 131.672 238.471 234.291 209.42C309.921 188.007 365.502 160.671 421.741 141.392C436.938 136.166 451.826 130.445 467.462 125.436C560.506 95.5496 621.731 79.5783 655.923 69.776C693.255 59.0306 705.508 55.3509 755.577 65.7098C783.632 71.5149 810.932 78.9943 837.18 88.0664C869.044 99.0747 881.562 104.548 901.348 116.917C910.132 122.374 917.049 128.188 925.108 133.676C961.167 158.26 979.459 180.864 1050.96 200.02C1117.57 217.862 1215.38 225.283 1298.56 208.168C1305.83 206.622 1312.64 205.076 1319.09 203.359C1400.52 182.147 1417.85 156.296 1483.51 151.457C1491.7 150.848 1499.93 150.58 1508.17 150.653C1539.18 150.838 1568.69 155.198 1609.91 162.681C1674.87 174.416 1723.73 189.862 1758.67 199.309C1775.52 203.873 1792.77 207.699 1810.29 210.765C1870.99 221.418 1958.66 227.772 2078.67 215.481" stroke="url(#paint6_linear_122_161)" stroke-opacity="0.7" stroke-width="1.05218" stroke-miterlimit="10"/>
<path d="M-101.543 258.756C9.28868 258.401 128.488 249.588 237.189 219.624C316.114 197.855 373.781 169.345 428.922 149.369C444.448 143.726 459.491 137.542 475.17 132.13C567.468 99.9404 628.253 80.3358 663.916 67.967C701.753 54.856 716.313 49.6302 765.174 59.618C793.025 65.3624 819.874 73.2867 845.218 83.2425C875.962 95.2866 887.337 101.904 905.256 114.582C913.294 120.272 919.662 126.271 927.634 131.867C962.286 156.188 984.73 176.782 1056.01 192.985C1123.54 208.338 1220.43 212.775 1301.96 195.799C1309.17 194.253 1315.93 192.707 1322.34 191.006C1405.99 169.36 1423.51 145.133 1486.27 140.325C1494.4 139.716 1502.57 139.427 1510.74 139.459C1542.23 139.459 1571.7 143.757 1611.75 151.116C1674.16 162.449 1722.15 177.648 1759.32 187.635C1776.07 192.161 1793.16 196.002 1810.54 199.138C1870.66 209.961 1957.91 217.398 2076.65 207.549" stroke="url(#paint7_linear_122_161)" stroke-opacity="0.7" stroke-width="1.05218" stroke-miterlimit="10"/>
<path d="M-102.51 266.193C3.62295 266.997 125.325 260.735 240.066 229.859C322.306 207.735 382.06 178.034 436.125 157.455C451.936 151.441 467.154 144.839 482.856 138.902C574.429 104.409 634.819 81.1706 671.931 66.2352C710.23 50.7742 727.117 43.9713 774.792 53.5881C802.432 59.2661 828.833 67.5898 853.255 78.3257C883.055 91.4212 893.091 99.1827 909.143 112.17C916.456 118.107 922.319 124.26 930.181 129.966C963.428 154.038 989.978 172.576 1061.04 185.873C1129.53 198.69 1225.48 200.205 1305.5 183.337C1312.64 181.791 1319.36 180.245 1325.72 178.591C1411.61 156.62 1429.38 133.939 1489.17 129.223C1497.24 128.613 1505.35 128.304 1513.46 128.296C1545.41 128.157 1574.95 132.362 1613.8 139.567C1673.61 150.529 1720.76 165.464 1760.16 176.009C1776.78 180.503 1793.73 184.369 1810.93 187.589C1870.51 198.69 1957.34 207.147 2074.82 199.71" stroke="url(#paint8_linear_122_161)" stroke-opacity="0.7" stroke-width="1.05218" stroke-miterlimit="10"/>
<path d="M-103.476 273.599C-2.04269 275.516 122.207 271.79 242.987 240.017C328.631 217.522 390.338 186.615 443.372 165.464C459.49 159.032 474.862 152.013 490.608 145.643C581.434 108.892 641.451 82.0364 679.991 64.4573C718.838 46.7234 737.987 38.2817 784.454 47.5274C811.902 53.1858 837.86 61.948 861.314 73.471C890.082 87.5715 898.866 96.5389 913.052 109.82C919.64 116.004 924.932 122.297 932.816 128.126C964.702 151.936 995.402 168.325 1066.2 178.807C1135.66 189.058 1230.64 187.682 1309.1 170.937C1316.15 169.391 1322.83 167.845 1329.17 166.299C1417.28 143.989 1435.3 122.854 1492.09 118.262C1500.11 117.619 1508.18 117.289 1516.25 117.272C1548.66 117.118 1578.09 121.091 1615.88 128.095C1673.13 138.686 1719.42 153.358 1761.06 164.459C1776.1 168.479 1792.77 172.453 1811.41 176.009C1870.42 187.326 1956.83 196.866 2073.04 191.825" stroke="url(#paint9_linear_122_161)" stroke-opacity="0.7" stroke-width="1.05218" stroke-miterlimit="10"/>
<path d="M-104.442 280.788C-7.81818 283.88 118.957 282.705 245.82 250.051C334.67 227.185 398.508 195.041 450.531 173.334C466.935 166.485 482.483 159.063 498.272 152.229C588.439 113.221 648.127 82.763 687.94 62.5555C727.336 42.4561 748.725 32.4683 794.007 41.3429C821.294 46.9868 846.84 56.174 869.33 68.4307C897.109 83.5515 904.466 93.7404 916.917 107.284C922.78 113.716 927.546 120.163 935.254 126.1C965.778 149.617 1000.61 163.949 1071.12 171.556C1141.63 179.163 1235.58 174.957 1312.46 158.337C1319.44 156.79 1326.08 155.244 1332.38 153.698C1422.72 131.048 1441.01 111.459 1494.88 106.975C1502.82 106.322 1510.8 105.976 1518.8 105.939C1551.74 105.645 1581.08 109.511 1617.62 116.422C1672.32 126.626 1717.73 141.051 1761.61 152.693C1776.58 156.682 1793.12 160.64 1811.55 164.274C1869.98 175.808 1955.98 186.414 2070.94 183.801" stroke="url(#paint10_linear_122_161)" stroke-opacity="0.7" stroke-width="1.05218" stroke-miterlimit="10"/>
<path d="M-105.386 287.885C-13.3961 292.167 115.773 293.482 248.718 259.962C340.95 236.77 406.699 203.313 457.712 181.111C474.423 173.829 490.147 166.021 506.024 158.723C595.489 117.442 654.869 83.4279 695.934 60.4991C735.967 38.2043 759.618 26.4849 803.538 35.0039C832.701 40.6626 859.184 52.3666 877.301 63.2358C904.114 79.3462 910.241 90.7873 920.76 104.594C925.855 111.273 930.115 117.875 937.713 123.936C966.898 147.127 1005.79 159.326 1076.06 164.134C1147.5 169.067 1240.54 162.078 1315.84 145.581C1322.74 144.035 1329.33 142.489 1335.61 140.943C1428.17 117.937 1446.7 99.8939 1497.54 95.5339C1505.42 94.8711 1513.34 94.5047 1521.28 94.4361C1554.64 93.9878 1583.97 97.7603 1619.48 104.532C1671.62 114.365 1716.11 128.528 1762.22 140.726C1777.13 144.669 1793.54 148.643 1811.72 152.322C1869.61 164.088 1955.19 175.761 2068.87 175.514" stroke="url(#paint11_linear_122_161)" stroke-opacity="0.7" stroke-width="1.05218" stroke-miterlimit="10"/>
<path d="M-106.353 294.888C-19.0617 300.346 112.501 303.98 251.595 269.764C346.967 246.016 414.868 211.476 464.915 188.733C481.89 181.003 497.854 172.824 513.688 165.062C602.538 121.601 661.632 83.9072 703.949 58.381C744.641 33.8289 770.312 20.4705 813.222 28.6031C841.353 33.9835 867.705 46.3059 885.404 57.979C911.251 75.0789 915.907 87.757 924.713 101.842C929.105 108.769 932.816 115.494 940.326 121.678C968.172 144.623 1011.19 154.58 1081.2 156.729C1153.67 158.94 1245.7 149.215 1319.42 132.826C1326.26 131.29 1332.8 129.744 1339.03 128.188C1433.86 104.872 1452.63 88.3445 1500.48 84.1082C1508.29 83.4276 1516.15 83.0405 1524.02 82.9486C1557.84 82.3765 1587.18 86.0408 1621.55 92.6581C1671.09 102.105 1714.77 116.082 1763.15 128.775C1777.99 132.702 1794.24 136.645 1812.23 140.386C1869.54 152.384 1954.7 165.124 2067.14 167.319" stroke="url(#paint12_linear_122_161)" stroke-opacity="0.7" stroke-width="1.05218" stroke-miterlimit="10"/>
<path d="M-107.319 301.784C-24.7493 308.386 109.338 314.57 254.472 279.458C353.16 255.355 423.059 219.485 472.117 196.294C489.356 188.146 505.497 179.565 521.396 171.339C609.609 125.668 668.528 84.3557 711.942 56.1393C753.337 29.3144 781.116 14.2553 822.731 22.0322C849.851 27.1189 876.093 40.0753 893.332 52.5832C918.257 70.6727 921.441 84.6185 928.468 98.9664C932.025 106.156 935.341 113.02 942.72 119.313C969.401 141.948 1016.53 151.225 1086.25 149.137C1159.55 146.942 1250.77 136.166 1322.94 119.901C1329.7 118.365 1336.18 116.819 1342.39 115.262C1439.5 91.7306 1458.47 76.6097 1503.34 72.4971C1511.09 71.8109 1518.89 71.4084 1526.7 71.2911C1560.98 70.6108 1590.39 74.1359 1623.5 80.5677C1670.39 89.7207 1713.3 103.527 1763.89 116.685C1778.67 120.581 1794.79 124.523 1812.53 128.327C1869.3 140.557 1954.04 154.363 2065.21 158.971" stroke="url(#paint13_linear_122_161)" stroke-opacity="0.7" stroke-width="1.05218" stroke-miterlimit="10"/>
<path d="M-108.373 308.603C-30.5029 316.333 106.088 325.1 257.261 289.075C359.265 264.616 431.03 227.432 479.211 203.715C496.779 195.119 513.095 186.182 528.994 177.431C616.614 129.502 675.203 84.6651 719.87 53.743C762.055 24.6762 791.987 8.00925 832.437 15.3996C858.525 20.1925 884.658 33.7673 901.457 47.1102C925.46 66.1582 927.107 81.3719 932.487 95.9671C935.254 103.419 938.13 110.408 945.399 116.84C970.653 139.165 1021.69 144.669 1091.28 141.453C1165.55 138.068 1255.8 123.024 1326.38 106.883C1332.97 105.336 1339.56 103.79 1345.69 102.244C1445.01 78.357 1464.27 64.7667 1506.15 60.7932C1513.83 60.0884 1521.57 59.6652 1529.32 59.5254C1564.06 58.7215 1593.35 62.1384 1625.41 68.4465C1669.84 77.151 1711.8 90.6176 1764.62 104.409C1779.35 108.274 1795.36 112.139 1812.93 116.082C1869.12 128.451 1953.47 143.402 2063.27 150.421" stroke="url(#paint14_linear_122_161)" stroke-opacity="0.7" stroke-width="1.05218" stroke-miterlimit="10"/>
<path d="M-109.229 315.343C-36.0807 324.264 102.992 335.551 260.247 298.63C365.655 273.815 439.221 235.24 486.435 211.105C504.179 202.045 520.825 192.768 536.724 183.584C623.883 133.614 682.099 84.9429 727.776 51.3615C770.642 19.9602 802.549 1.68523 841.968 8.73546C867.024 13.2346 893.09 27.4279 909.429 41.5902C932.531 61.6895 932.596 78.0782 936.33 92.9517C938.24 100.682 940.722 107.779 947.859 114.334C971.839 136.351 1026.91 139.505 1096.24 133.738C1171.41 127.554 1260.81 109.851 1329.79 93.8176C1336.37 92.2714 1342.81 90.7253 1348.94 89.3029C1450.5 65.06 1469.98 52.954 1508.89 49.1042C1516.57 48.4095 1524.3 47.9966 1532.04 47.8673C1564.25 47.0132 1596.45 49.8858 1627.34 56.3709C1669.2 64.7044 1710.31 77.9081 1765.36 92.256C1780.03 96.0749 1795.89 99.9865 1813.17 103.945C1893.97 122.148 1977.04 134.888 2061.27 141.994" stroke="url(#paint15_linear_122_161)" stroke-opacity="0.7" stroke-width="1.05218" stroke-miterlimit="10"/>
<path d="M-110.196 322.038C-41.7464 332.118 99.8297 345.956 263.124 308.123C371.76 282.952 447.281 243.078 493.704 218.449C699.755 109.031 764.976 -13.1729 851.652 1.99437C875.676 6.19977 901.677 21.0114 917.532 36.0086C951.394 68.013 930.049 92.2868 950.472 111.768C1000.54 159.542 1225.76 106.186 1352.34 76.2073C1475.75 46.9705 1480.32 37.5548 1534.61 36.0086C1629.36 33.272 1678.62 60.066 1813.5 91.6684C1893.69 110.368 1975.96 124.331 2059.45 133.413" stroke="url(#paint16_linear_122_161)" stroke-opacity="0.7" stroke-width="1.05218" stroke-miterlimit="10"/>
<path d="M-110.196 326.46C-39.9237 337.484 97.2604 350.115 253.374 313.906C361.132 288.843 433.446 248.583 483.273 222.686C682.319 119.359 744.399 7.45238 832.701 17.4402C867.2 21.3364 902.226 29.1442 925.35 41.1111C970.785 64.6428 953.898 85.6852 980.25 104.501C1037.94 145.72 1248.01 99.4456 1368.52 71.9404C1485.92 45.0536 1490.67 37.4468 1548.05 38.9929C1643.4 41.5594 1690.41 65.2767 1817.47 95.6112C1896.75 114.527 1978.37 128.146 2061.27 136.289" stroke="url(#paint17_linear_122_161)" stroke-opacity="0.7" stroke-width="1.05218" stroke-miterlimit="10"/>
<path d="M-110.196 331.067C6.99653 350.061 129.328 346.185 243.624 319.858C350.503 294.919 419.479 254.241 472.842 227.092C664.619 129.594 724.657 26.3147 813.771 33.0557C858.987 36.4881 901.501 37.3539 933.168 46.3986C987.497 61.8596 976.912 79.0214 1010.03 97.42C1073.29 132.532 1270.25 92.8745 1384.73 67.8431C1495.91 43.3064 1500.86 37.3539 1561.51 42.1468C1657.21 49.6918 1702.21 70.8116 1821.45 99.7392C1899.78 118.858 1980.74 132.134 2063.01 139.35" stroke="url(#paint18_linear_122_161)" stroke-opacity="0.7" stroke-width="1.05218" stroke-miterlimit="10"/>
<path d="M-110.196 339.261C3.58407 358.483 122.712 355.068 233.895 329.397C339.874 304.567 405.535 263.471 462.411 235.085C646.524 143.216 705.552 59.4786 794.82 52.2582C850.664 47.7436 900.052 49.5989 941.007 55.2577C1002.89 63.7922 999.289 75.96 1039.83 93.9103C1106.94 123.626 1292.54 90.045 1400.92 67.3328C1506.06 45.3008 1510.96 40.7089 1574.95 48.8723C1670.96 61.1174 1713.98 79.9026 1825.45 107.439C1902.84 126.783 1983.17 139.723 2064.81 145.999" stroke="url(#paint19_linear_122_161)" stroke-opacity="0.7" stroke-width="1.05218" stroke-miterlimit="10"/>
<path d="M-110.196 351.739C0.162849 371.178 116.085 368.208 224.145 343.173C329.246 318.436 391.568 276.923 451.98 247.315C628.297 160.903 686.711 85.1595 775.89 75.6974C842.143 68.6781 900.645 57.9481 948.825 68.3534C1015.12 82.6703 1017.6 83.6598 1069.6 94.6372C1132.17 128.048 1314.81 91.4058 1417.12 71.0591C1516.16 51.4236 1521.04 48.1767 1588.41 59.8498C1684.66 76.5323 1725.73 93.2921 1829.42 119.375C1905.88 138.939 1985.59 151.539 2066.59 156.868" stroke="url(#paint20_linear_122_161)" stroke-opacity="0.7" stroke-width="1.05218" stroke-miterlimit="10"/>
<path d="M-110.196 364.51C-3.26344 384.179 109.46 381.698 214.439 357.367C318.661 332.753 377.624 290.776 441.593 259.962C609.938 178.853 667.693 110.407 756.851 99.5537C833.711 90.2153 897.658 75.4036 956.687 81.8818C1032.8 90.2307 1039.54 86.953 1099.43 95.7967C1165.07 125.528 1337.06 93.0601 1433.22 75.2026C1526.15 57.9636 1531.03 55.9072 1601.76 71.2446C1698.39 92.1479 1737.36 107.13 1833.31 131.728C1908.84 151.513 1987.93 163.774 2068.28 168.154" stroke="url(#paint21_linear_122_161)" stroke-opacity="0.7" stroke-width="1.05218" stroke-miterlimit="10"/>
<path d="M-110.196 377.528C-6.71435 397.388 102.779 395.371 204.645 371.73C307.988 347.224 363.547 304.784 431.118 272.779C591.426 196.85 648.522 135.331 738.009 123.58C825.256 112.124 895.813 102.723 964.46 95.565C1049.23 86.7213 1061.39 90.3856 1129.16 97.1111C1197.98 123.256 1359.3 94.9466 1449.51 79.5165C1536.34 64.6739 1541.22 63.7153 1615.31 82.8097C1712.11 107.764 1749.16 121.199 1837.28 144.267C1911.89 164.266 1990.37 176.187 2070.06 179.627" stroke="url(#paint22_linear_122_161)" stroke-opacity="0.7" stroke-width="1.05218" stroke-miterlimit="10"/>
<path d="M-110.196 390.716C-28.4386 407.368 81.9543 412.98 194.916 386.279C297.448 362.036 349.515 318.946 420.687 285.782C572.804 214.909 629.307 160.084 719.058 147.792C816.911 134.403 894.737 121.307 972.3 109.433C1065.19 95.1938 1085.39 85.2523 1158.96 98.6107C1235.18 112.448 1381.55 97.0646 1465.7 84.0155C1546.42 71.5539 1551.34 71.6466 1628.75 94.5444C1726.03 123.41 1760.86 135.485 1841.37 156.976C1891.41 170.334 1966.91 187.805 2071.95 191.269" stroke="url(#paint23_linear_122_161)" stroke-opacity="0.7" stroke-width="1.05218" stroke-miterlimit="10"/>
<path d="M-110.196 404.136C-26.5281 421.7 79.3849 426.137 185.166 401.044C286.819 376.925 335.438 333.278 410.256 299.001C554.072 233.091 609.763 184.806 700.128 172.221C808.61 157.1 893.859 140.201 980.118 123.518C1081.38 103.929 1106.65 89.0249 1188.74 100.327C1266.98 111.15 1403.77 99.2756 1481.9 88.7311C1556.57 78.6505 1561.66 79.5782 1642.21 106.511C1739.98 139.18 1772.52 150.05 1845.34 169.902C1894.66 183.353 1969.04 200.824 2073.73 203.143" stroke="url(#paint24_linear_122_161)" stroke-opacity="0.7" stroke-width="1.05218" stroke-miterlimit="10"/>
<path d="M-110.196 417.711C-24.5517 436.264 76.8156 439.449 175.416 415.979C276.19 391.983 321.318 347.765 399.825 312.39C535.274 251.35 590.218 209.543 681.176 196.819C800.397 180.136 893.09 159.31 987.936 137.773C1097.74 112.85 1127.93 93.3226 1218.52 102.213C1298.89 110.098 1425.99 101.733 1498.09 93.6163C1566.56 85.8858 1571.98 87.6638 1655.65 118.648C1754.03 155.058 1784.16 164.83 1849.32 182.997C1897.94 196.556 1971.15 214.089 2075.5 215.171" stroke="url(#paint25_linear_122_161)" stroke-opacity="0.7" stroke-width="1.05218" stroke-miterlimit="10"/>
<path d="M-110.196 431.487C-22.729 450.921 74.2683 452.947 165.666 431.1C265.562 407.213 307.154 362.376 389.394 325.965C516.389 269.718 569.093 226.845 662.247 221.603C794.314 214.167 892.388 178.622 995.753 152.214C1114.18 121.972 1153.87 82.6395 1248.29 104.285C1327.17 122.421 1448.13 104.285 1514.29 98.688C1576.62 93.354 1582.37 95.8741 1669.11 130.955C1768.17 171.046 1795.76 179.858 1853.29 196.278C1901.19 209.961 1973.28 227.509 2077.28 227.401" stroke="url(#paint26_linear_122_161)" stroke-opacity="0.7" stroke-width="1.05218" stroke-miterlimit="10"/>
<path d="M-110.196 445.711C-20.8185 466.089 71.699 466.862 155.937 446.763C254.933 422.983 292.946 377.466 378.963 340.081C497.547 288.55 549.526 253.237 643.296 246.929C786.036 237.296 891.773 198.489 1003.59 167.196C1130.74 131.636 1173.5 89.7208 1278.09 106.898C1361.06 120.535 1470.42 107.486 1530.48 104.301C1586.67 101.317 1592.93 104.563 1682.55 143.819C1782.4 187.543 1807.35 195.474 1857.29 210.1C1904.44 223.923 1975.41 241.455 2079.08 240.157" stroke="url(#paint27_linear_122_161)" stroke-opacity="0.7" stroke-width="1.05218" stroke-miterlimit="10"/>
<path d="M-110.196 460.832C-18.93 482.153 69.1077 481.735 146.187 463.151C244.304 439.48 278.672 393.221 368.532 354.924C478.464 308.061 529.938 280.355 624.366 272.98C777.822 260.998 891.202 219.098 1011.41 182.92C1147.39 141.994 1193.68 98.3787 1307.87 110.253C1394.7 119.282 1492.6 111.335 1546.69 110.639C1596.71 109.99 1603.54 113.948 1696.01 157.409C1796.7 204.735 1818.99 211.878 1861.26 224.664C1907.66 238.672 1977.65 256.143 2080.86 253.654" stroke="url(#paint28_linear_122_161)" stroke-opacity="0.7" stroke-width="1.05218" stroke-miterlimit="10"/>
<path d="M-110.196 476.216C-17.0194 498.48 66.5383 496.841 136.437 479.895C233.676 456.317 264.332 409.223 358.101 370.122C459.447 327.852 510.284 307.799 605.415 299.388C769.5 284.885 890.675 240.048 1019.23 198.984C1164.16 152.709 1214.37 108.027 1337.65 113.948C1428.12 118.293 1514.8 115.494 1562.87 117.334C1606.7 118.988 1614.21 123.627 1709.45 171.355C1811.11 222.268 1830.41 228.762 1865.24 239.585C1910.85 253.824 1979.65 271.202 2082.64 267.507" stroke="url(#paint29_linear_122_161)" stroke-opacity="0.7" stroke-width="1.05218" stroke-miterlimit="10"/>
<path d="M-110.196 492.959C-15.1089 516.151 63.9031 513.213 126.687 497.984C222.981 474.36 249.882 426.446 347.67 386.665C440.385 348.94 490.608 336.571 586.485 327.14C761.111 309.963 890.192 262.358 1026.96 216.392C1180.68 164.768 1236 126.038 1367.34 118.988C1460.93 113.979 1536.89 120.998 1578.99 125.373C1616.69 129.3 1624.89 134.65 1722.83 186.63C1825.47 241.146 1841.81 246.928 1869.12 255.818C1913.88 270.398 1981.69 287.575 2084.33 282.689" stroke="url(#paint30_linear_122_161)" stroke-opacity="0.7" stroke-width="1.05218" stroke-miterlimit="10"/>
<path d="M-110.196 509.534C-13.2204 533.668 61.3338 529.525 116.958 515.919C212.353 492.403 235.301 443.345 337.239 403.053C421.302 369.828 470.888 365.174 567.534 354.738C752.678 334.747 889.731 284.498 1034.89 233.662C1197.59 176.657 1258.11 134.712 1397.23 123.889C1493.85 116.406 1559.22 126.255 1595.26 133.258C1626.86 139.443 1635.8 145.473 1736.35 201.766C1840.09 259.838 1853.31 265.048 1873.21 271.928C1916.95 287.049 1983.91 303.794 2086.22 297.717" stroke="url(#paint31_linear_122_161)" stroke-opacity="0.7" stroke-width="1.05218" stroke-miterlimit="10"/>
<path d="M-110.196 526.124C-11.3757 551.186 58.8963 545.852 107.208 533.854C201.636 510.446 220.566 459.997 326.808 419.442C402.219 390.654 451.146 393.777 548.604 382.336C744.158 359.376 889.291 306.577 1042.7 250.917C1214.39 188.547 1280.29 143.324 1427 128.775C1527.03 118.864 1581.54 131.434 1611.47 141.144C1637.01 149.431 1646.6 156.28 1749.82 216.903C1854.67 278.546 1864.67 283.231 1877.18 288.024C1919.5 304.242 1986.02 320.028 2088 312.761" stroke="url(#paint32_linear_122_161)" stroke-opacity="0.7" stroke-width="1.05218" stroke-miterlimit="10"/>
<defs>
<linearGradient id="paint0_linear_122_161" x1="997.686" y1="41.8667" x2="997.686" y2="255.212" gradientUnits="userSpaceOnUse">
<stop stop-color="white"/>
<stop offset="0.82" stop-color="#411666"/>
</linearGradient>
<linearGradient id="paint1_linear_122_161" x1="996.258" y1="49.9536" x2="996.258" y2="249.405" gradientUnits="userSpaceOnUse">
<stop stop-color="white"/>
<stop offset="0.82" stop-color="#411666"/>
</linearGradient>
<linearGradient id="paint2_linear_122_161" x1="994.809" y1="56.7778" x2="994.809" y2="244.903" gradientUnits="userSpaceOnUse">
<stop stop-color="white"/>
<stop offset="0.82" stop-color="#411666"/>
</linearGradient>
<linearGradient id="paint3_linear_122_161" x1="993.36" y1="62.0266" x2="993.36" y2="242.021" gradientUnits="userSpaceOnUse">
<stop stop-color="white"/>
<stop offset="0.82" stop-color="#411666"/>
</linearGradient>
<linearGradient id="paint4_linear_122_161" x1="991.91" y1="66.2966" x2="991.91" y2="239.934" gradientUnits="userSpaceOnUse">
<stop stop-color="white"/>
<stop offset="0.82" stop-color="#411666"/>
</linearGradient>
<linearGradient id="paint5_linear_122_161" x1="990.494" y1="64.4927" x2="990.494" y2="244.053" gradientUnits="userSpaceOnUse">
<stop stop-color="white"/>
<stop offset="0.82" stop-color="#411666"/>
</linearGradient>
<linearGradient id="paint6_linear_122_161" x1="989.034" y1="59.5674" x2="989.034" y2="251.35" gradientUnits="userSpaceOnUse">
<stop stop-color="white"/>
<stop offset="0.82" stop-color="#411666"/>
</linearGradient>
<linearGradient id="paint7_linear_122_161" x1="987.551" y1="54.4043" x2="987.551" y2="258.756" gradientUnits="userSpaceOnUse">
<stop stop-color="white"/>
<stop offset="0.82" stop-color="#411666"/>
</linearGradient>
<linearGradient id="paint8_linear_122_161" x1="986.157" y1="49.1453" x2="986.157" y2="266.258" gradientUnits="userSpaceOnUse">
<stop stop-color="white"/>
<stop offset="0.82" stop-color="#411666"/>
</linearGradient>
<linearGradient id="paint9_linear_122_161" x1="984.784" y1="43.7368" x2="984.784" y2="274.012" gradientUnits="userSpaceOnUse">
<stop stop-color="white"/>
<stop offset="0.82" stop-color="#411666"/>
</linearGradient>
<linearGradient id="paint10_linear_122_161" x1="983.247" y1="38.0869" x2="983.247" y2="281.92" gradientUnits="userSpaceOnUse">
<stop stop-color="white"/>
<stop offset="0.82" stop-color="#411666"/>
</linearGradient>
<linearGradient id="paint11_linear_122_161" x1="981.743" y1="32.2168" x2="981.743" y2="290.085" gradientUnits="userSpaceOnUse">
<stop stop-color="white"/>
<stop offset="0.82" stop-color="#411666"/>
</linearGradient>
<linearGradient id="paint12_linear_122_161" x1="980.392" y1="26.22" x2="980.392" y2="298.407" gradientUnits="userSpaceOnUse">
<stop stop-color="white"/>
<stop offset="0.82" stop-color="#411666"/>
</linearGradient>
<linearGradient id="paint13_linear_122_161" x1="978.943" y1="19.9875" x2="978.943" y2="306.893" gradientUnits="userSpaceOnUse">
<stop stop-color="white"/>
<stop offset="0.82" stop-color="#411666"/>
</linearGradient>
<linearGradient id="paint14_linear_122_161" x1="977.45" y1="13.6521" x2="977.45" y2="315.507" gradientUnits="userSpaceOnUse">
<stop stop-color="white"/>
<stop offset="0.82" stop-color="#411666"/>
</linearGradient>
<linearGradient id="paint15_linear_122_161" x1="976.022" y1="7.22876" x2="976.022" y2="324.239" gradientUnits="userSpaceOnUse">
<stop stop-color="white"/>
<stop offset="0.82" stop-color="#411666"/>
</linearGradient>
<linearGradient id="paint16_linear_122_161" x1="974.628" y1="0.711914" x2="974.628" y2="333.048" gradientUnits="userSpaceOnUse">
<stop stop-color="white"/>
<stop offset="0.82" stop-color="#411666"/>
</linearGradient>
<linearGradient id="paint17_linear_122_161" x1="975.539" y1="16.8171" x2="975.539" y2="337.895" gradientUnits="userSpaceOnUse">
<stop stop-color="white"/>
<stop offset="0.82" stop-color="#411666"/>
</linearGradient>
<linearGradient id="paint18_linear_122_161" x1="976.407" y1="32.7426" x2="976.407" y2="342.928" gradientUnits="userSpaceOnUse">
<stop stop-color="white"/>
<stop offset="0.82" stop-color="#411666"/>
</linearGradient>
<linearGradient id="paint19_linear_122_161" x1="977.307" y1="45.0952" x2="977.307" y2="351.532" gradientUnits="userSpaceOnUse">
<stop stop-color="white"/>
<stop offset="0.82" stop-color="#411666"/>
</linearGradient>
<linearGradient id="paint20_linear_122_161" x1="978.197" y1="53.0857" x2="978.197" y2="364.414" gradientUnits="userSpaceOnUse">
<stop stop-color="white"/>
<stop offset="0.82" stop-color="#411666"/>
</linearGradient>
<linearGradient id="paint21_linear_122_161" x1="979.042" y1="60.9036" x2="979.042" y2="377.636" gradientUnits="userSpaceOnUse">
<stop stop-color="white"/>
<stop offset="0.82" stop-color="#411666"/>
</linearGradient>
<linearGradient id="paint22_linear_122_161" x1="979.931" y1="68.4216" x2="979.931" y2="391.074" gradientUnits="userSpaceOnUse">
<stop stop-color="white"/>
<stop offset="0.82" stop-color="#411666"/>
</linearGradient>
<linearGradient id="paint23_linear_122_161" x1="980.875" y1="75.7166" x2="980.875" y2="404.758" gradientUnits="userSpaceOnUse">
<stop stop-color="white"/>
<stop offset="0.82" stop-color="#411666"/>
</linearGradient>
<linearGradient id="paint24_linear_122_161" x1="981.765" y1="82.8218" x2="981.765" y2="418.591" gradientUnits="userSpaceOnUse">
<stop stop-color="white"/>
<stop offset="0.82" stop-color="#411666"/>
</linearGradient>
<linearGradient id="paint25_linear_122_161" x1="982.654" y1="89.7549" x2="982.654" y2="432.608" gradientUnits="userSpaceOnUse">
<stop stop-color="white"/>
<stop offset="0.82" stop-color="#411666"/>
</linearGradient>
<linearGradient id="paint26_linear_122_161" x1="983.544" y1="96.5452" x2="983.544" y2="446.78" gradientUnits="userSpaceOnUse">
<stop stop-color="white"/>
<stop offset="0.82" stop-color="#411666"/>
</linearGradient>
<linearGradient id="paint27_linear_122_161" x1="984.444" y1="102.923" x2="984.444" y2="461.423" gradientUnits="userSpaceOnUse">
<stop stop-color="white"/>
<stop offset="0.82" stop-color="#411666"/>
</linearGradient>
<linearGradient id="paint28_linear_122_161" x1="985.333" y1="108.269" x2="985.333" y2="476.964" gradientUnits="userSpaceOnUse">
<stop stop-color="white"/>
<stop offset="0.82" stop-color="#411666"/>
</linearGradient>
<linearGradient id="paint29_linear_122_161" x1="986.223" y1="113.418" x2="986.223" y2="492.769" gradientUnits="userSpaceOnUse">
<stop stop-color="white"/>
<stop offset="0.82" stop-color="#411666"/>
</linearGradient>
<linearGradient id="paint30_linear_122_161" x1="987.068" y1="117.256" x2="987.068" y2="509.89" gradientUnits="userSpaceOnUse">
<stop stop-color="white"/>
<stop offset="0.82" stop-color="#411666"/>
</linearGradient>
<linearGradient id="paint31_linear_122_161" x1="988.013" y1="121.211" x2="988.013" y2="526.892" gradientUnits="userSpaceOnUse">
<stop stop-color="white"/>
<stop offset="0.82" stop-color="#411666"/>
</linearGradient>
<linearGradient id="paint32_linear_122_161" x1="988.902" y1="125.158" x2="988.902" y2="543.901" gradientUnits="userSpaceOnUse">
<stop stop-color="white"/>
<stop offset="0.82" stop-color="#411666"/>
</linearGradient>
</defs>
</svg>
