<svg width="74" height="74" viewBox="0 0 74 74" fill="none" xmlns="http://www.w3.org/2000/svg">
<circle cx="37" cy="37" r="37" fill="url(#paint0_linear_940_2284)"/>
<path d="M33.5916 52.32C33.0316 52.32 32.4916 52.1467 31.9716 51.8C31.4516 51.44 30.9249 51.0267 30.3916 50.56V52H26.3516V22.6H30.3916V31.56C30.8982 31.08 31.4316 30.6667 31.9916 30.32C32.5516 29.9733 33.0849 29.8 33.5916 29.8C34.2849 29.8 34.8582 30.0133 35.3116 30.44C35.7782 30.8533 36.1249 31.3867 36.3516 32.04C36.5916 32.6933 36.7116 33.3733 36.7116 34.08V48.04C36.7116 48.7467 36.5916 49.4333 36.3516 50.1C36.1116 50.7533 35.7582 51.2867 35.2916 51.7C34.8249 52.1133 34.2582 52.32 33.5916 52.32ZM31.6716 48.52C31.9782 48.52 32.2182 48.3933 32.3916 48.14C32.5782 47.8867 32.6716 47.5733 32.6716 47.2V34.92C32.6716 34.5333 32.5782 34.22 32.3916 33.98C32.2182 33.7267 31.9782 33.6 31.6716 33.6C31.3782 33.6 31.0916 33.74 30.8116 34.02C30.5316 34.3 30.3916 34.6 30.3916 34.92V47.2C30.3916 47.5733 30.5316 47.8867 30.8116 48.14C31.0916 48.3933 31.3782 48.52 31.6716 48.52ZM45.74 52.32C45.18 52.32 44.64 52.1467 44.12 51.8C43.6 51.44 43.0733 51.0267 42.54 50.56V52H38.5V22.6H42.54V31.56C43.0467 31.08 43.58 30.6667 44.14 30.32C44.7 29.9733 45.2333 29.8 45.74 29.8C46.4333 29.8 47.0067 30.0133 47.46 30.44C47.9267 30.8533 48.2733 31.3867 48.5 32.04C48.74 32.6933 48.86 33.3733 48.86 34.08V48.04C48.86 48.7467 48.74 49.4333 48.5 50.1C48.26 50.7533 47.9067 51.2867 47.44 51.7C46.9733 52.1133 46.4067 52.32 45.74 52.32ZM43.82 48.52C44.1267 48.52 44.3667 48.3933 44.54 48.14C44.7267 47.8867 44.82 47.5733 44.82 47.2V34.92C44.82 34.5333 44.7267 34.22 44.54 33.98C44.3667 33.7267 44.1267 33.6 43.82 33.6C43.5267 33.6 43.24 33.74 42.96 34.02C42.68 34.3 42.54 34.6 42.54 34.92V47.2C42.54 47.5733 42.68 47.8867 42.96 48.14C43.24 48.3933 43.5267 48.52 43.82 48.52Z" fill="white"/>
<defs>
<linearGradient id="paint0_linear_940_2284" x1="59.4643" y1="1.068" x2="3.33072" y2="81.4036" gradientUnits="userSpaceOnUse">
<stop offset="0.281331" stop-color="#241E2C"/>
<stop offset="0.940154" stop-color="#5B0E9B"/>
</linearGradient>
</defs>
</svg>