<?xml version="1.0" standalone="no"?>
<!DOCTYPE svg PUBLIC "-//W3C//DTD SVG 20010904//EN"
 "http://www.w3.org/TR/2001/REC-SVG-20010904/DTD/svg10.dtd">
<svg version="1.0" xmlns="http://www.w3.org/2000/svg"
 width="512.000000pt" height="512.000000pt" viewBox="0 0 512.000000 512.000000"
 preserveAspectRatio="xMidYMid meet">

<g transform="translate(0.000000,512.000000) scale(0.100000,-0.100000)"
fill="#000000" stroke="none">
<path d="M764 3674 c-58 -21 -120 -77 -152 -138 -37 -72 -38 -180 -2 -248 35
-65 1757 -1796 1820 -1829 61 -32 196 -34 251 -4 20 11 431 412 912 890 971
965 927 915 927 1046 0 54 -6 77 -31 127 -50 102 -134 154 -249 154 -126 1
-87 36 -923 -800 l-757 -757 -768 766 c-525 525 -780 772 -807 785 -52 24
-166 28 -221 8z"/>
</g>
</svg>
