<?xml version="1.0" standalone="no"?>
<!DOCTYPE svg PUBLIC "-//W3C//DTD SVG 20010904//EN"
 "http://www.w3.org/TR/2001/REC-SVG-20010904/DTD/svg10.dtd">
<svg version="1.0" xmlns="http://www.w3.org/2000/svg"
 width="512.000000pt" height="512.000000pt" viewBox="0 0 512.000000 512.000000"
 preserveAspectRatio="xMidYMid meet">

<g transform="translate(0.000000,512.000000) scale(0.100000,-0.100000)"
fill="#000000" stroke="none">
<path d="M2470 3677 c-19 -7 -42 -17 -51 -23 -9 -5 -411 -401 -892 -879 -971
-965 -927 -915 -927 -1046 0 -54 6 -77 31 -127 50 -102 134 -154 249 -154 126
-1 87 -36 923 800 l757 757 768 -766 c529 -528 779 -772 807 -784 56 -26 152
-31 213 -11 64 22 126 76 160 140 37 72 38 180 2 248 -35 66 -1758 1796 -1820
1828 -55 28 -168 37 -220 17z"/>
</g>
</svg>
