<svg width="142" height="57" viewBox="0 0 142 57" fill="none" xmlns="http://www.w3.org/2000/svg">
<path d="M0.549936 56V0.630631H8.83651C11.6489 0.630631 14.0721 1.13285 16.1061 2.13728C18.1652 3.1166 19.7472 4.66092 20.852 6.77023C21.982 8.87954 22.547 11.6041 22.547 14.9438C22.547 17.6055 22.1955 19.9283 21.4924 21.9121C20.8144 23.8958 19.4835 25.5155 17.4997 26.771C19.5086 27.8759 20.9525 29.6336 21.8314 32.0443C22.7102 34.4298 23.1497 37.192 23.1497 40.3308C23.1497 43.4195 22.6475 46.144 21.643 48.5044C20.6637 50.8648 19.2073 52.7105 17.2737 54.0414C15.3653 55.3471 13.0049 56 10.1925 56H0.549936ZM8.68584 47.9394C11.1467 47.9394 12.7664 47.2112 13.5448 45.7548C14.3232 44.2732 14.7124 42.1639 14.7124 39.4269C14.7124 36.6396 14.3232 34.5302 13.5448 33.0989C12.7664 31.6425 11.1467 30.9143 8.68584 30.9143V47.9394ZM8.68584 23.4564C10.9709 23.4564 12.5404 22.8286 13.3941 21.5731C14.273 20.3175 14.7124 18.4593 14.7124 15.9985C14.7124 13.5125 14.2604 11.6794 13.3565 10.4992C12.4776 9.29386 10.9207 8.6912 8.68584 8.6912V23.4564ZM32.774 56.6027C31.0162 56.6027 29.497 55.7112 28.2164 53.9284C26.9357 52.1455 26.2954 49.421 26.2954 45.7548C26.2954 42.2142 27.0487 39.3641 28.5554 37.2045C30.0871 35.045 32.3722 33.1743 35.4106 31.5923C36.3648 31.0901 37.1684 30.6381 37.8213 30.2363C38.4741 29.8345 38.8759 29.4579 39.0266 29.1063V24.5864C39.0266 23.5568 38.901 22.6779 38.6499 21.9497C38.4239 21.1964 37.8464 20.8197 36.9173 20.8197C36.0635 20.8197 35.486 21.2215 35.1846 22.0251C34.8833 22.8035 34.7326 23.7828 34.7326 24.963V26.9217H27.1241V25.189C27.1241 22.929 27.5635 20.983 28.4424 19.3507C29.3464 17.6934 30.5642 16.4253 32.096 15.5465C33.6529 14.6425 35.4106 14.1905 37.3693 14.1905C39.2526 14.1905 40.8848 14.6299 42.2659 15.5088C43.647 16.3626 44.7142 17.5553 45.4675 19.0871C46.2459 20.5937 46.6352 22.3264 46.6352 24.285V48.8434C46.6352 50.6765 46.6854 52.1078 46.7858 53.1374C46.8863 54.1418 47.0118 55.096 47.1625 56H39.7046C39.3781 55.5982 39.1773 55.0081 39.1019 54.2297C39.0517 53.4513 39.0266 52.9365 39.0266 52.6854H38.4993C37.8715 53.8405 37.0679 54.7821 36.0886 55.5103C35.1344 56.2386 34.0295 56.6027 32.774 56.6027ZM35.8626 49.1447C36.7415 49.1447 37.4823 48.8434 38.0849 48.2408C38.7127 47.6381 39.0266 46.9852 39.0266 46.2821V36.4889C37.1935 37.2673 35.8501 38.4475 34.9963 40.0295C34.1676 41.5864 33.7533 43.3441 33.7533 45.3028C33.7533 46.1566 33.9165 47.0103 34.243 47.8641C34.5694 48.7179 35.1093 49.1447 35.8626 49.1447ZM50.9168 56V14.7931H58.5253V19.3884C58.676 18.384 59.1406 17.4925 59.919 16.7141C60.6974 15.9357 61.6391 15.3205 62.744 14.8685C63.8739 14.4165 65.0039 14.1905 66.1339 14.1905V22.6277C65.8075 22.5022 65.4559 22.4268 65.0793 22.4017C64.7277 22.3515 64.3762 22.3264 64.0246 22.3264C62.3673 22.3264 61.0364 22.7784 60.032 23.6824C59.0276 24.5864 58.5253 25.8168 58.5253 27.3737V56H50.9168ZM69.1702 56V14.7931H76.7787V56H69.1702ZM69.1702 8.23921V0.630631H76.7787V8.23921H69.1702Z" fill="#411666"/>
<path d="M82.062 56V0.630631H90.3486C93.161 0.630631 95.5842 1.13285 97.6182 2.13728C99.6773 3.1166 101.259 4.66092 102.364 6.77023C103.494 8.87954 104.059 11.6041 104.059 14.9438C104.059 17.6055 103.708 19.9283 103.004 21.9121C102.326 23.8958 100.996 25.5155 99.0118 26.771C101.021 27.8759 102.465 29.6336 103.343 32.0443C104.222 34.4298 104.662 37.192 104.662 40.3308C104.662 43.4195 104.16 46.144 103.155 48.5044C102.176 50.8648 100.719 52.7105 98.7858 54.0414C96.8774 55.3471 94.517 56 91.7046 56H82.062ZM90.1979 47.9394C92.6588 47.9394 94.2784 47.2112 95.0569 45.7548C95.8353 44.2732 96.2245 42.1639 96.2245 39.4269C96.2245 36.6396 95.8353 34.5302 95.0569 33.0989C94.2784 31.6425 92.6588 30.9143 90.1979 30.9143V47.9394ZM90.1979 23.4564C92.483 23.4564 94.0524 22.8286 94.9062 21.5731C95.7851 20.3175 96.2245 18.4593 96.2245 15.9985C96.2245 13.5125 95.7725 11.6794 94.8685 10.4992C93.9897 9.29386 92.4328 8.6912 90.1979 8.6912V23.4564ZM113.42 56V12.6085H107.996V7.41055C109.904 7.03389 111.612 6.26801 113.118 5.11291C114.625 3.95781 115.805 2.46372 116.659 0.630631H121.556V56H113.42ZM126.47 56V14.7931H134.079V19.3884C134.229 18.384 134.694 17.4925 135.472 16.7141C136.251 15.9357 137.192 15.3205 138.297 14.8685C139.427 14.4165 140.557 14.1905 141.687 14.1905V22.6277C141.361 22.5022 141.009 22.4268 140.632 22.4017C140.281 22.3515 139.929 22.3264 139.578 22.3264C137.92 22.3264 136.59 22.7784 135.585 23.6824C134.581 24.5864 134.079 25.8168 134.079 27.3737V56H126.47Z" fill="#724A95"/>
</svg>
